<?xml version="1.0" encoding="UTF-8" standalone="no"?>
<svg
   xmlns:dc="http://purl.org/dc/elements/1.1/"
   xmlns:cc="http://creativecommons.org/ns#"
   xmlns:rdf="http://www.w3.org/1999/02/22-rdf-syntax-ns#"
   xmlns:svg="http://www.w3.org/2000/svg"
   xmlns="http://www.w3.org/2000/svg"
   viewBox="0 0 1588 2245.3333"
   height="2245.3333"
   width="1588"
   xml:space="preserve"
   id="svg2"
   version="1.1"><metadata
     id="metadata8"><rdf:RDF><cc:Work
         rdf:about=""><dc:format>image/svg+xml</dc:format><dc:type
           rdf:resource="http://purl.org/dc/dcmitype/StillImage" /></cc:Work></rdf:RDF></metadata><defs
     id="defs6" /><g
     transform="matrix(1.3333333,0,0,-1.3333333,0,2245.3333)"
     id="g10"><g
       id="g12" /><g
       id="g14" /><g
       id="g16"><g
         id="g18"><path
           id="path20"
           style="fill:none;stroke:#669999;stroke-width:2;stroke-linecap:butt;stroke-linejoin:miter;stroke-miterlimit:10;stroke-dasharray:none;stroke-opacity:1"
           d="M 135.1,1587 H 595.5" /></g><g
         id="g22"><path
           id="path24"
           style="fill:none;stroke:#669999;stroke-width:2;stroke-linecap:butt;stroke-linejoin:miter;stroke-miterlimit:10;stroke-dasharray:none;stroke-opacity:1"
           d="m 595.5,1587 h 460.4" /></g></g><text
       id="text28"
       style="font-variant:normal;font-weight:normal;font-size:18px;font-family:ArialMT;-inkscape-font-specification:ArialMT;writing-mode:lr-tb;fill:#000000;fill-opacity:1;fill-rule:nonzero;stroke:#000000;stroke-width:0.60000002;stroke-linecap:butt;stroke-linejoin:miter;stroke-miterlimit:10;stroke-dasharray:none;stroke-opacity:1"
       transform="matrix(1,0,0,-1,137.1,1594)"><tspan
         id="tspan26"
         y="0"
         x="0 12.996 23.004 27.99 31.986 36.972 40.967999 50.976002 60.984001 65.970001 79.956001 89.963997 99.972 104.958 109.944 114.93 126.918 132.912 142.92 146.916 156.924 165.924">Untitled Gantt Project</tspan></text>
<text
       id="text32"
       style="font-variant:normal;font-weight:normal;font-size:10.80000019px;font-family:ArialMT;-inkscape-font-specification:ArialMT;writing-mode:lr-tb;fill:#000000;fill-opacity:1;fill-rule:nonzero;stroke:#000000;stroke-width:0.36000001;stroke-linecap:butt;stroke-linejoin:miter;stroke-miterlimit:10;stroke-dasharray:none;stroke-opacity:1"
       transform="matrix(1,0,0,-1,991.49,1594)"><tspan
         id="tspan30"
         y="0"
         x="0 6.0047998 12.0096 15.0012 23.997601 30.002399 35.402401 38.394001 44.3988 50.403599 56.408401">18 May 2024</tspan></text>
<text
       id="text36"
       style="font-variant:normal;font-weight:normal;font-size:10.80000019px;font-family:ArialMT;-inkscape-font-specification:ArialMT;writing-mode:lr-tb;fill:#000000;fill-opacity:1;fill-rule:nonzero;stroke:#000000;stroke-width:0.36000001;stroke-linecap:butt;stroke-linejoin:miter;stroke-miterlimit:10;stroke-dasharray:none;stroke-opacity:1"
       transform="matrix(1,0,0,-1,1026.93,1575.2)"><tspan
         id="tspan34"
         y="0"
         x="0 6.0047998 8.9963999 11.988 17.9928 20.9844 23.976">http://</tspan></text>
<text
       id="text40"
       style="font-variant:normal;font-weight:normal;font-size:12px;font-family:ArialMT;-inkscape-font-specification:ArialMT;writing-mode:lr-tb;fill:#000000;fill-opacity:1;fill-rule:nonzero;stroke:#000000;stroke-width:0.40000001;stroke-linecap:butt;stroke-linejoin:miter;stroke-miterlimit:10;stroke-dasharray:none;stroke-opacity:1"
       transform="matrix(1,0,0,-1,137.1,1531.2)"><tspan
         id="tspan38"
         y="0"
         x="0 7.9920001 11.988 18.66 21.323999 27.996 33.995998 37.32 40.644001 50.639999 57.312 63.984001 70.655998 77.328003 84">Project manager</tspan></text>
<text
       id="text44"
       style="font-variant:normal;font-weight:normal;font-size:12px;font-family:ArialMT;-inkscape-font-specification:ArialMT;writing-mode:lr-tb;fill:#000000;fill-opacity:1;fill-rule:nonzero;stroke:none"
       transform="matrix(1,0,0,-1,597.5,1531.2)"><tspan
         id="tspan42"
         y="0"
         x="0 9.9960003 13.992 17.316 24.636 27.959999 37.956001 44.627998 51.299999 57.972 60.636002 67.307999">Mr T Moodley</tspan></text>
<text
       id="text48"
       style="font-variant:normal;font-weight:normal;font-size:12px;font-family:ArialMT;-inkscape-font-specification:ArialMT;writing-mode:lr-tb;fill:#000000;fill-opacity:1;fill-rule:nonzero;stroke:#000000;stroke-width:0.40000001;stroke-linecap:butt;stroke-linejoin:miter;stroke-miterlimit:10;stroke-dasharray:none;stroke-opacity:1"
       transform="matrix(1,0,0,-1,137.1,1515.2)"><tspan
         id="tspan46"
         y="0"
         x="0 7.9920001 11.988 18.66 21.323999 27.996 33.995998 37.32 40.644001 47.316002 53.987999 57.312 63.984001">Project dates</tspan></text>
<text
       id="text52"
       style="font-variant:normal;font-weight:normal;font-size:12px;font-family:ArialMT;-inkscape-font-specification:ArialMT;writing-mode:lr-tb;fill:#000000;fill-opacity:1;fill-rule:nonzero;stroke:none"
       transform="matrix(1,0,0,-1,597.5,1515.2)"><tspan
         id="tspan50"
         y="0"
         x="0 6.6719999 13.344 16.667999 23.988001 30.66 37.332001 40.655998 47.327999 54 60.672001 67.344002 70.667999 74.664001 77.987999 84.660004 91.332001 94.655998 103.98 109.98 113.304 116.628 123.3 129.972 136.644">19 Feb 2024 - 17 Oct 2024</tspan></text>
<text
       id="text56"
       style="font-variant:normal;font-weight:normal;font-size:12px;font-family:ArialMT;-inkscape-font-specification:ArialMT;writing-mode:lr-tb;fill:#000000;fill-opacity:1;fill-rule:nonzero;stroke:#000000;stroke-width:0.40000001;stroke-linecap:butt;stroke-linejoin:miter;stroke-miterlimit:10;stroke-dasharray:none;stroke-opacity:1"
       transform="matrix(1,0,0,-1,137.1,1483.2)"><tspan
         id="tspan54"
         y="0"
         x="0 8.6639996 15.336 25.332001 32.004002 34.667999 41.34 44.664001 47.327999 54">Completion</tspan></text>
<text
       id="text60"
       style="font-variant:normal;font-weight:normal;font-size:12px;font-family:ArialMT;-inkscape-font-specification:ArialMT;writing-mode:lr-tb;fill:#000000;fill-opacity:1;fill-rule:nonzero;stroke:none"
       transform="matrix(1,0,0,-1,597.5,1483.2)"><tspan
         id="tspan58"
         y="0"
         x="0 6.6719999 13.344">29%</tspan></text>
<text
       id="text64"
       style="font-variant:normal;font-weight:normal;font-size:12px;font-family:ArialMT;-inkscape-font-specification:ArialMT;writing-mode:lr-tb;fill:#000000;fill-opacity:1;fill-rule:nonzero;stroke:#000000;stroke-width:0.40000001;stroke-linecap:butt;stroke-linejoin:miter;stroke-miterlimit:10;stroke-dasharray:none;stroke-opacity:1"
       transform="matrix(1,0,0,-1,137.1,1467.2)"><tspan
         id="tspan62"
         y="0"
         x="0 7.3200002 13.992 19.992001 25.992001">Tasks</tspan></text>
<text
       id="text68"
       style="font-variant:normal;font-weight:normal;font-size:12px;font-family:ArialMT;-inkscape-font-specification:ArialMT;writing-mode:lr-tb;fill:#000000;fill-opacity:1;fill-rule:nonzero;stroke:none"
       transform="matrix(1,0,0,-1,597.5,1467.2)"><tspan
         id="tspan66"
         y="0"
         x="0 6.6719999">29</tspan></text>
<text
       id="text72"
       style="font-variant:normal;font-weight:normal;font-size:12px;font-family:ArialMT;-inkscape-font-specification:ArialMT;writing-mode:lr-tb;fill:#000000;fill-opacity:1;fill-rule:nonzero;stroke:#000000;stroke-width:0.40000001;stroke-linecap:butt;stroke-linejoin:miter;stroke-miterlimit:10;stroke-dasharray:none;stroke-opacity:1"
       transform="matrix(1,0,0,-1,137.1,1451.2)"><tspan
         id="tspan70"
         y="0"
         x="0 8.6639996 15.336 21.336 28.007999 34.68 38.675999 44.675999 51.348">Resources</tspan></text>
<text
       id="text76"
       style="font-variant:normal;font-weight:normal;font-size:12px;font-family:ArialMT;-inkscape-font-specification:ArialMT;writing-mode:lr-tb;fill:#000000;fill-opacity:1;fill-rule:nonzero;stroke:none"
       transform="matrix(1,0,0,-1,597.5,1451.2)"><tspan
         id="tspan74"
         y="0"
         x="0 6.6719999">11</tspan></text>
</g></svg>