<?xml version="1.0" encoding="UTF-8" standalone="no"?>
<svg
   xmlns:dc="http://purl.org/dc/elements/1.1/"
   xmlns:cc="http://creativecommons.org/ns#"
   xmlns:rdf="http://www.w3.org/1999/02/22-rdf-syntax-ns#"
   xmlns:svg="http://www.w3.org/2000/svg"
   xmlns="http://www.w3.org/2000/svg"
   viewBox="0 0 1588 2245.3333"
   height="2245.3333"
   width="1588"
   xml:space="preserve"
   id="svg2"
   version="1.1"><metadata
     id="metadata8"><rdf:RDF><cc:Work
         rdf:about=""><dc:format>image/svg+xml</dc:format><dc:type
           rdf:resource="http://purl.org/dc/dcmitype/StillImage" /></cc:Work></rdf:RDF></metadata><defs
     id="defs6" /><g
     transform="matrix(1.3333333,0,0,-1.3333333,0,2245.3333)"
     id="g10"><g
       id="g12" /><g
       id="g14" /><g
       id="g16"><g
         id="g18"><path
           id="path20"
           style="fill:none;stroke:#669999;stroke-width:1;stroke-linecap:butt;stroke-linejoin:miter;stroke-miterlimit:10;stroke-dasharray:none;stroke-opacity:1"
           d="M 809.76,1594.5 H 48.78" /></g><g
         id="g22"><path
           id="path24"
           style="fill:none;stroke:#669999;stroke-width:1;stroke-linecap:butt;stroke-linejoin:miter;stroke-miterlimit:10;stroke-dasharray:none;stroke-opacity:1"
           d="M 1142.22,1594.5 H 809.76" /></g></g><text
       id="text28"
       style="font-variant:normal;font-weight:normal;font-size:12px;font-family:ArialMT;-inkscape-font-specification:ArialMT;writing-mode:lr-tb;fill:#000000;fill-opacity:1;fill-rule:nonzero;stroke:#000000;stroke-width:0.40000001;stroke-linecap:butt;stroke-linejoin:miter;stroke-miterlimit:10;stroke-dasharray:none;stroke-opacity:1"
       transform="matrix(1,0,0,-1,53.78,1598)"><tspan
         id="tspan26"
         y="0"
         x="0 8.6639996 15.336 25.332001">Name</tspan></text>
<text
       id="text32"
       style="font-variant:normal;font-weight:normal;font-size:12px;font-family:ArialMT;-inkscape-font-specification:ArialMT;writing-mode:lr-tb;fill:#000000;fill-opacity:1;fill-rule:nonzero;stroke:#000000;stroke-width:0.40000001;stroke-linecap:butt;stroke-linejoin:miter;stroke-miterlimit:10;stroke-dasharray:none;stroke-opacity:1"
       transform="matrix(1,0,0,-1,814.76,1598)"><tspan
         id="tspan30"
         y="0"
         x="0 8.6639996 15.336 18.66 25.332001 32.004002 34.667999 37.992001 41.316002 45.312 51.984001 54.647999">Default role</tspan></text>
<text
       id="text36"
       style="font-variant:normal;font-weight:normal;font-size:12px;font-family:ArialMT;-inkscape-font-specification:ArialMT;writing-mode:lr-tb;fill:#000000;fill-opacity:1;fill-rule:nonzero;stroke:none"
       transform="matrix(1,0,0,-1,53.78,1580)"><tspan
         id="tspan34"
         y="0"
         x="0 9.9960003 13.992 17.316 24.636 27.959999 37.956001 44.627998 51.299999 57.972 60.636002 67.307999">Mr T Moodley</tspan></text>
<text
       id="text40"
       style="font-variant:normal;font-weight:normal;font-size:12px;font-family:ArialMT;-inkscape-font-specification:ArialMT;writing-mode:lr-tb;fill:#000000;fill-opacity:1;fill-rule:nonzero;stroke:none"
       transform="matrix(1,0,0,-1,814.76,1580)"><tspan
         id="tspan38"
         y="0"
         x="0 6.6719999 10.668 17.34 20.004 26.676001 32.675999 36 39.324001 49.32 55.992001 62.664001 69.335999 76.008003 82.68">project manager</tspan></text>
<text
       id="text44"
       style="font-variant:normal;font-weight:normal;font-size:12px;font-family:ArialMT;-inkscape-font-specification:ArialMT;writing-mode:lr-tb;fill:#000000;fill-opacity:1;fill-rule:nonzero;stroke:none"
       transform="matrix(1,0,0,-1,53.78,1563.6)"><tspan
         id="tspan42"
         y="0"
         x="0 9.9960003 15.996 19.32 27.983999 34.655998 41.327999 47.327999 54 60.672001 67.344002 70.008003">MJ Rankapole</tspan></text>
<text
       id="text48"
       style="font-variant:normal;font-weight:normal;font-size:12px;font-family:ArialMT;-inkscape-font-specification:ArialMT;writing-mode:lr-tb;fill:#000000;fill-opacity:1;fill-rule:nonzero;stroke:none"
       transform="matrix(1,0,0,-1,814.76,1563.6)"><tspan
         id="tspan46"
         y="0"
         x="0 6.6719999 13.344 20.016001 26.688 30.011999 32.675999 39.348 46.02">undefined</tspan></text>
<text
       id="text52"
       style="font-variant:normal;font-weight:normal;font-size:12px;font-family:ArialMT;-inkscape-font-specification:ArialMT;writing-mode:lr-tb;fill:#000000;fill-opacity:1;fill-rule:nonzero;stroke:none"
       transform="matrix(1,0,0,-1,53.78,1547.2)"><tspan
         id="tspan50"
         y="0"
         x="0 6 12.672 15.996 25.992001 32.664001 39.335999 46.007999 52.007999">JL Mabaso</tspan></text>
<text
       id="text56"
       style="font-variant:normal;font-weight:normal;font-size:12px;font-family:ArialMT;-inkscape-font-specification:ArialMT;writing-mode:lr-tb;fill:#000000;fill-opacity:1;fill-rule:nonzero;stroke:none"
       transform="matrix(1,0,0,-1,814.76,1547.2)"><tspan
         id="tspan54"
         y="0"
         x="0 6.6719999 13.344 20.016001 26.688 30.011999 32.675999 39.348 46.02">undefined</tspan></text>
<text
       id="text60"
       style="font-variant:normal;font-weight:normal;font-size:12px;font-family:ArialMT;-inkscape-font-specification:ArialMT;writing-mode:lr-tb;fill:#000000;fill-opacity:1;fill-rule:nonzero;stroke:none"
       transform="matrix(1,0,0,-1,53.78,1530.8)"><tspan
         id="tspan58"
         y="0"
         x="0 8.6639996 17.988001 21.312 31.308001 37.98 44.652 51.324001 57.995998 64.667999 67.332001">UO Maqubela</tspan></text>
<text
       id="text64"
       style="font-variant:normal;font-weight:normal;font-size:12px;font-family:ArialMT;-inkscape-font-specification:ArialMT;writing-mode:lr-tb;fill:#000000;fill-opacity:1;fill-rule:nonzero;stroke:none"
       transform="matrix(1,0,0,-1,814.76,1530.8)"><tspan
         id="tspan62"
         y="0"
         x="0 6.6719999 13.344 20.016001 26.688 30.011999 32.675999 39.348 46.02">undefined</tspan></text>
<text
       id="text68"
       style="font-variant:normal;font-weight:normal;font-size:12px;font-family:ArialMT;-inkscape-font-specification:ArialMT;writing-mode:lr-tb;fill:#000000;fill-opacity:1;fill-rule:nonzero;stroke:none"
       transform="matrix(1,0,0,-1,53.78,1514.4)"><tspan
         id="tspan66"
         y="0"
         x="0 8.6639996 16.656 19.98 28.643999 35.316002 41.987999 48.66 55.332001">RE Radebe</tspan></text>
<text
       id="text72"
       style="font-variant:normal;font-weight:normal;font-size:12px;font-family:ArialMT;-inkscape-font-specification:ArialMT;writing-mode:lr-tb;fill:#000000;fill-opacity:1;fill-rule:nonzero;stroke:none"
       transform="matrix(1,0,0,-1,814.76,1514.4)"><tspan
         id="tspan70"
         y="0"
         x="0 6.6719999 13.344 20.016001 26.688 30.011999 32.675999 39.348 46.02">undefined</tspan></text>
<text
       id="text76"
       style="font-variant:normal;font-weight:normal;font-size:12px;font-family:ArialMT;-inkscape-font-specification:ArialMT;writing-mode:lr-tb;fill:#000000;fill-opacity:1;fill-rule:nonzero;stroke:none"
       transform="matrix(1,0,0,-1,53.78,1498)"><tspan
         id="tspan74"
         y="0"
         x="0 9.3240004 11.988 15.312 21.983999 28.656">Github</tspan></text>
<text
       id="text80"
       style="font-variant:normal;font-weight:normal;font-size:12px;font-family:ArialMT;-inkscape-font-specification:ArialMT;writing-mode:lr-tb;fill:#000000;fill-opacity:1;fill-rule:nonzero;stroke:none"
       transform="matrix(1,0,0,-1,814.76,1498)"><tspan
         id="tspan78"
         y="0"
         x="0 6.6719999 13.344 20.016001 26.688 30.011999 32.675999 39.348 46.02">undefined</tspan></text>
<text
       id="text84"
       style="font-variant:normal;font-weight:normal;font-size:12px;font-family:ArialMT;-inkscape-font-specification:ArialMT;writing-mode:lr-tb;fill:#000000;fill-opacity:1;fill-rule:nonzero;stroke:none"
       transform="matrix(1,0,0,-1,53.78,1481.6)"><tspan
         id="tspan82"
         y="0"
         x="0 9.3240004 15.996 22.667999 25.992001 29.316 37.307999 41.304001 47.976002 50.639999 57.312 63.312">GanttProject</tspan></text>
<text
       id="text88"
       style="font-variant:normal;font-weight:normal;font-size:12px;font-family:ArialMT;-inkscape-font-specification:ArialMT;writing-mode:lr-tb;fill:#000000;fill-opacity:1;fill-rule:nonzero;stroke:none"
       transform="matrix(1,0,0,-1,814.76,1481.6)"><tspan
         id="tspan86"
         y="0"
         x="0 6.6719999 13.344 20.016001 26.688 30.011999 32.675999 39.348 46.02">undefined</tspan></text>
<text
       id="text92"
       style="font-variant:normal;font-weight:normal;font-size:12px;font-family:ArialMT;-inkscape-font-specification:ArialMT;writing-mode:lr-tb;fill:#000000;fill-opacity:1;fill-rule:nonzero;stroke:none"
       transform="matrix(1,0,0,-1,53.78,1465.2)"><tspan
         id="tspan90"
         y="0"
         x="0 8.6639996 12.66 19.332001 27.996 31.32 37.992001 40.655998 43.98 52.644001 55.307999 61.98 65.304001 71.975998 78.648003 84.648003 87.311996 93.984001 102.648 109.32 115.992 119.988">Draw.oi/Dia/LucidChart</tspan></text>
<text
       id="text96"
       style="font-variant:normal;font-weight:normal;font-size:12px;font-family:ArialMT;-inkscape-font-specification:ArialMT;writing-mode:lr-tb;fill:#000000;fill-opacity:1;fill-rule:nonzero;stroke:none"
       transform="matrix(1,0,0,-1,814.76,1465.2)"><tspan
         id="tspan94"
         y="0"
         x="0 6.6719999 13.344 20.016001 26.688 30.011999 32.675999 39.348 46.02">undefined</tspan></text>
<text
       id="text100"
       style="font-variant:normal;font-weight:normal;font-size:12px;font-family:ArialMT;-inkscape-font-specification:ArialMT;writing-mode:lr-tb;fill:#000000;fill-opacity:1;fill-rule:nonzero;stroke:none"
       transform="matrix(1,0,0,-1,53.78,1448.8)"><tspan
         id="tspan98"
         y="0"
         x="0 7.9920001 10.656 16.656 23.327999 30 32.664001 35.987999 43.98 47.304001 53.976002 60.647999 63.312 69.984001">Visual Studios</tspan></text>
<text
       id="text104"
       style="font-variant:normal;font-weight:normal;font-size:12px;font-family:ArialMT;-inkscape-font-specification:ArialMT;writing-mode:lr-tb;fill:#000000;fill-opacity:1;fill-rule:nonzero;stroke:none"
       transform="matrix(1,0,0,-1,814.76,1448.8)"><tspan
         id="tspan102"
         y="0"
         x="0 6.6719999 13.344 20.016001 26.688 30.011999 32.675999 39.348 46.02">undefined</tspan></text>
<text
       id="text108"
       style="font-variant:normal;font-weight:normal;font-size:12px;font-family:ArialMT;-inkscape-font-specification:ArialMT;writing-mode:lr-tb;fill:#000000;fill-opacity:1;fill-rule:nonzero;stroke:none"
       transform="matrix(1,0,0,-1,53.78,1432.4)"><tspan
         id="tspan106"
         y="0"
         x="0 2.664 9.3360004 12.66 19.332001 26.004 32.675999 36 42.672001">i7 Laptop</tspan></text>
<text
       id="text112"
       style="font-variant:normal;font-weight:normal;font-size:12px;font-family:ArialMT;-inkscape-font-specification:ArialMT;writing-mode:lr-tb;fill:#000000;fill-opacity:1;fill-rule:nonzero;stroke:none"
       transform="matrix(1,0,0,-1,814.76,1432.4)"><tspan
         id="tspan110"
         y="0"
         x="0 6.6719999 13.344 20.016001 26.688 30.011999 32.675999 39.348 46.02">undefined</tspan></text>
<text
       id="text116"
       style="font-variant:normal;font-weight:normal;font-size:12px;font-family:ArialMT;-inkscape-font-specification:ArialMT;writing-mode:lr-tb;fill:#000000;fill-opacity:1;fill-rule:nonzero;stroke:none"
       transform="matrix(1,0,0,-1,53.78,1416)"><tspan
         id="tspan114"
         y="0"
         x="0 9.3240004 15.996 18.66 21.323999 27.996 34.667999 37.992001 46.655998 53.327999 60 63.995998 69.996002 76.667999">Online Courses</tspan></text>
<text
       id="text120"
       style="font-variant:normal;font-weight:normal;font-size:12px;font-family:ArialMT;-inkscape-font-specification:ArialMT;writing-mode:lr-tb;fill:#000000;fill-opacity:1;fill-rule:nonzero;stroke:none"
       transform="matrix(1,0,0,-1,814.76,1416)"><tspan
         id="tspan118"
         y="0"
         x="0 6.6719999 13.344 20.016001 26.688 30.011999 32.675999 39.348 46.02">undefined</tspan></text>
<g
       id="g122" /><g
       id="g124"><g
         id="g126"><path
           id="path128"
           style="fill:none;stroke:#669999;stroke-width:2;stroke-linecap:butt;stroke-linejoin:miter;stroke-miterlimit:10;stroke-dasharray:none;stroke-opacity:1"
           d="M 20,1639 H 595.5" /></g><g
         id="g130"><path
           id="path132"
           style="fill:none;stroke:#669999;stroke-width:2;stroke-linecap:butt;stroke-linejoin:miter;stroke-miterlimit:10;stroke-dasharray:none;stroke-opacity:1"
           d="M 595.5,1639 H 1171" /></g></g><text
       id="text136"
       style="font-variant:normal;font-weight:normal;font-size:18px;font-family:ArialMT;-inkscape-font-specification:ArialMT;writing-mode:lr-tb;fill:#000000;fill-opacity:1;fill-rule:nonzero;stroke:#000000;stroke-width:0.60000002;stroke-linecap:butt;stroke-linejoin:miter;stroke-miterlimit:10;stroke-dasharray:none;stroke-opacity:1"
       transform="matrix(1,0,0,-1,22,1646)"><tspan
         id="tspan134"
         y="0"
         x="0 12.996 23.004 27.99 31.986 36.972 40.967999 50.976002 60.984001 65.970001 79.956001 89.963997 99.972 104.958 109.944 114.93 126.918 132.912 142.92 146.916 156.924 165.924">Untitled Gantt Project</tspan></text>
<text
       id="text140"
       style="font-variant:normal;font-weight:normal;font-size:10.80000019px;font-family:ArialMT;-inkscape-font-specification:ArialMT;writing-mode:lr-tb;fill:#000000;fill-opacity:1;fill-rule:nonzero;stroke:#000000;stroke-width:0.36000001;stroke-linecap:butt;stroke-linejoin:miter;stroke-miterlimit:10;stroke-dasharray:none;stroke-opacity:1"
       transform="matrix(1,0,0,-1,1106.59,1646)"><tspan
         id="tspan138"
         y="0"
         x="0 6.0047998 12.0096 15.0012 23.997601 30.002399 35.402401 38.394001 44.3988 50.403599 56.408401">18 May 2024</tspan></text>
<text
       id="text144"
       style="font-variant:normal;font-weight:normal;font-size:18px;font-family:ArialMT;-inkscape-font-specification:ArialMT;writing-mode:lr-tb;fill:#000000;fill-opacity:1;fill-rule:nonzero;stroke:#000000;stroke-width:0.60000002;stroke-linecap:butt;stroke-linejoin:miter;stroke-miterlimit:10;stroke-dasharray:none;stroke-opacity:1"
       transform="matrix(1,0,0,-1,23,1620)"><tspan
         id="tspan142"
         y="0"
         x="0 12.996 23.004 32.004002 42.012001 52.02 58.014 67.014 77.022003">Resources</tspan></text>
<text
       id="text148"
       style="font-variant:normal;font-weight:normal;font-size:10.80000019px;font-family:ArialMT;-inkscape-font-specification:ArialMT;writing-mode:lr-tb;fill:#000000;fill-opacity:1;fill-rule:nonzero;stroke:#000000;stroke-width:0.36000001;stroke-linecap:butt;stroke-linejoin:miter;stroke-miterlimit:10;stroke-dasharray:none;stroke-opacity:1"
       transform="matrix(1,0,0,-1,1163,1627.2)"><tspan
         id="tspan146"
         y="0"
         x="0">3</tspan></text>
</g></svg>